Title: Loop time
Original title: Looper Original title: Looper
Year: 2012
Country: USA, China
Studio: DMG Entertainment
Duration: 01:53:45
Genre: Action, Fantasy, Thriller
Director: Ryan Johnson
About the film:
In the near future, where they can travel in time, the corporation is removes unwanted people, sending them to the past in a plastic bag. The task of the host - put a bullet into the victim's head, thereby erasing the accident of history. Everything goes smoothly as long as the main character does not extract the next package, discovering it himself ... from the future.
File:
Codec: AVC Codec: AVC
Quality: DVDRip-AVC
Video: 720x428 @ 1024x428, 25 fps, 1840 kbps
Audio 1: AC3, 48 kHz, 6 ch, 448 kbps [Russian]
Audio 2: AC3, 48 kHz, 6 ch, 448 kbps [English]
Video:
ID : 1
Format : AVC
Format/Info : Advanced Video Codec
Format profile : High@L4.1
Format settings, CABAC : Yes
Format settings, ReFrames : 12 frames
Codec ID : V_MPEG4/ISO/AVC
Duration : 1h 53mn
Bit rate : 1 840 Kbps
Width : 720 pixels
Height : 428 pixels
Display aspect ratio : 2.40:1
Frame rate : 25.000 fps
Color space : YUV
Chroma subsampling : 4:2:0
Bit depth : 8 bits
Scan type : Progressive
Audio #1
ID : 2
Format : AC-3
Format/Info : Audio Coding 3
Mode extension : CM (complete main)
Format settings, Endianness : Big
Codec ID : A_AC3
Duration : 1h 53mn
Bit rate mode : Constant
Bit rate : 448 Kbps
Channel(s) : 6 channels
Channel positions : Front: L C R, Side: L R, LFE
Sampling rate : 48.0 KHz
Bit depth : 16 bits
Compression mode : Lossy
Stream size : 365 MiB (16%)
Title : AC3.448.Kbps.Russian
Language : Russian
Default : Yes
Forced : No
Audio #2
ID : 3
Format : AC-3
Format/Info : Audio Coding 3
Mode extension : CM (complete main)
Format settings, Endianness : Big
Codec ID : A_AC3
Duration : 1h 53mn
Bit rate mode : Constant
Bit rate : 448 Kbps
Channel(s) : 6 channels
Channel positions : Front: L C R, Side: L R, LFE
Sampling rate : 48.0 KHz
Bit depth : 16 bits
Compression mode : Lossy
Stream size : 365 MiB (16%)
Title : AC3.448.Kbps.English
Language : English
Default : No
Forced : No
                        Screens:
                       
                       
                       